<svg xmlns="http://www.w3.org/2000/svg" viewBox="0 0 306.65 247.12"><defs><style>.cls-1{fill:#2b61d8;}.cls-2{fill:#ff4019;}</style></defs><title>logo</title><g id="Laag_2" data-name="Laag 2"><g id="Laag_1-2" data-name="Laag 1"><path class="cls-1" d="M89.16,172.42h-.59A16,16,0,0,1,75,165.63l-42.22-59v124.3a15.39,15.39,0,0,1-4.87,11.51,16.18,16.18,0,0,1-11.66,4.73,15.68,15.68,0,0,1-11.52-4.73A15.63,15.63,0,0,1,0,230.88V56.69A15.67,15.67,0,0,1,4.72,45.17a15.71,15.71,0,0,1,11.52-4.72h.88q8.56,0,13,6.79l58.76,81.49,58.75-81.49a15.71,15.71,0,0,1,13.29-6.79h.29a17.29,17.29,0,0,1,11.66,5,15.1,15.1,0,0,1,4.88,11.22V230.88a15.59,15.59,0,0,1-4.88,11.37,15.92,15.92,0,0,1-11.66,4.87A16.15,16.15,0,0,1,145,230.88V106.58l-42.51,59.05A15.74,15.74,0,0,1,89.16,172.42Z"/><path class="cls-2" d="M32.77,106.58v124.3a15.39,15.39,0,0,1-4.87,11.51,16.18,16.18,0,0,1-11.66,4.73,15.68,15.68,0,0,1-11.52-4.73A15.63,15.63,0,0,1,0,230.88V56.69A15.67,15.67,0,0,1,4.72,45.17a15.71,15.71,0,0,1,11.52-4.72h.88q8.56,0,13,6.79l2.78,3.92"/><path class="cls-2" d="M226.93,105.4l18.6-17.12C270,65.84,282.73,52,282.73,36.91c0-11.22-7.09-20.38-22.44-20.38-10.33,0-19.19,5-24.8,9.16l-6.2-13.59c8-6.49,21.26-12.1,36.32-12.1,27.75,0,39,17.42,39,33.07,0,22.14-16.83,38.38-39.27,58.16l-8.86,8.27v.59h50.2v16.24H226.93Z"/></g></g></svg>