<svg xmlns="http://www.w3.org/2000/svg" viewBox="0 0 56.52 48"><defs><style>.cls-1{fill:#21427c;}</style></defs><title>volume</title><g id="Laag_2" data-name="Laag 2"><g id="Laag_1-2" data-name="Laag 1"><path class="cls-1" d="M32.69,31.89a1.43,1.43,0,0,0,.9,2.54,1.42,1.42,0,0,0,.89-.31,12.91,12.91,0,0,0,0-20.18,1.42,1.42,0,0,0-2,.23,1.44,1.44,0,0,0,.22,2,10.05,10.05,0,0,1,0,15.71Z"/><path class="cls-1" d="M39.63,40.16a1.42,1.42,0,0,0,.89-.31,20.27,20.27,0,0,0,0-31.64,1.43,1.43,0,0,0-1.79,2.23,17.39,17.39,0,0,1,0,27.18,1.43,1.43,0,0,0,.9,2.54Z"/><path class="cls-1" d="M45.27,46a1.42,1.42,0,0,0,.89-.31,27.68,27.68,0,0,0,0-43.22,1.43,1.43,0,1,0-1.79,2.23,24.82,24.82,0,0,1,0,38.76,1.43,1.43,0,0,0,.9,2.54Z"/><path class="cls-1" d="M0,16.18V31.94a4.7,4.7,0,0,0,4.75,4.58h7c1.46.71,8.29,6.07,14.14,11.07a1.51,1.51,0,0,0,.93.41.7.7,0,0,0,.42-.09,1.24,1.24,0,0,0,.65-1.27V1.48a1.29,1.29,0,0,0-.66-1.3,1.26,1.26,0,0,0-1.45.1c-5.84,5.19-12.56,11.24-14,11.24H4.75A4.78,4.78,0,0,0,0,16.18Zm2.86,0a2,2,0,0,1,1.89-1.8h7.09c.53,0,1.73.27,13.16-9.74V43.56c-11.43-9.63-12.64-9.9-13.16-9.9H4.75a1.89,1.89,0,0,1-1.89-1.72Z"/></g></g></svg>